<svg height="479pt" viewBox="-39 0 479 479.76925" width="479pt" xmlns="http://www.w3.org/2000/svg"><path d="m400.382812 71.769531c0-4.417969-3.578124-8-8-8h-120.46875c-4.183593-36.339843-34.949218-63.769531-71.53125-63.769531-36.578124 0-67.34375 27.429688-71.527343 63.769531h-120.472657c-4.417968 0-8 3.582031-8 8v80c.042969.289063.101563.574219.179688.855469-.019531.238281-.019531.476562 0 .710938l64 320c.742188 3.734374 4.015625 6.421874 7.820312 6.433593h256c3.804688 0 7.082032-2.675781 7.84375-6.398437l64-320c.015626-.238282.015626-.476563 0-.714844.070313-.292969.121094-.589844.15625-.886719zm-200-56c27.808594.054688 51.371094 20.484375 55.363282 48h-110.722656c3.992187-27.515625 27.554687-47.945312 55.359374-48zm-184 64h368v64h-368zm72 384v-200c0-4.417969 3.582032-8 8-8h16c4.421876 0 8 3.582031 8 8v200zm96 0v-200c0-4.417969 3.582032-8 8-8h16c4.421876 0 8 3.582031 8 8v200zm96 0v-200c0-4.417969 3.582032-8 8-8h16c4.421876 0 8 3.582031 8 8v200zm48-32.800781v-167.199219c0-13.253906-10.742187-24-24-24h-16c-13.253906 0-24 10.746094-24 24v200h-32v-200c0-13.253906-10.742187-24-24-24h-16c-13.253906 0-24 10.746094-24 24v200h-32v-200c0-13.253906-10.742187-24-24-24h-16c-13.253906 0-24 10.746094-24 24v167.199219l-54.238281-271.199219h364.480469zm0 0"/></svg>