<svg height="480pt" viewBox="0 0 480 480" width="480pt" xmlns="http://www.w3.org/2000/svg"><path d="m472 304h-24v-288h24c4.417969 0 8-3.582031 8-8s-3.582031-8-8-8h-464c-4.417969 0-8 3.582031-8 8s3.582031 8 8 8h24v288h-24c-4.417969 0-8 3.582031-8 8s3.582031 8 8 8h208v28.6875l-117.648438 117.648438c-.746093.746093-1.335937 1.632812-1.734374 2.609374-1.019532 2.464844-.742188 5.277344.738281 7.496094 1.484375 2.222656 3.976562 3.554688 6.644531 3.558594h40c2.125-.011719 4.15625-.855469 5.664062-2.351562l66.335938-66.335938v60.6875c0 4.417969 3.582031 8 8 8h32c4.417969 0 8-3.582031 8-8v-60.6875l66.335938 66.335938c1.507812 1.496093 3.539062 2.339843 5.664062 2.351562h40c1.050781-.003906 2.085938-.214844 3.054688-.617188 2.46875-1.023437 4.261718-3.210937 4.785156-5.832031.519531-2.617187-.300782-5.324219-2.191406-7.214843l-117.648438-117.648438v-28.6875h208c4.417969 0 8-3.582031 8-8s-3.582031-8-8-8zm-331.3125 160h-17.375l92.6875-92.6875v17.375zm216 0h-17.375l-75.3125-75.3125v-17.375zm-108.6875 0h-16v-144h16zm-200-160v-288h384v288zm0 0"/><path d="m392 256h-24v-72c0-4.417969-3.582031-8-8-8h-32c-4.417969 0-8 3.582031-8 8v72h-16v-104c0-4.417969-3.582031-8-8-8h-32c-4.417969 0-8 3.582031-8 8v104h-16v-136c0-4.417969-3.582031-8-8-8h-32c-4.417969 0-8 3.582031-8 8v136h-16v-168c0-4.417969-3.582031-8-8-8h-32c-4.417969 0-8 3.582031-8 8v168h-32v-200c0-4.417969-3.582031-8-8-8s-8 3.582031-8 8v208c0 4.417969 3.582031 8 8 8h304c4.417969 0 8-3.582031 8-8s-3.582031-8-8-8zm-248 0v-160h16v160zm64 0v-128h16v128zm64 0v-96h16v96zm64 0v-64h16v64zm0 0"/></svg>