<svg height="480pt" viewBox="0 0 480 480" width="480pt" xmlns="http://www.w3.org/2000/svg"><path d="m472 0h-400c-39.746094.0429688-71.9570312 32.253906-72 72v336c.0429688 39.746094 32.253906 71.957031 72 72h400c4.417969 0 8-3.582031 8-8v-464c0-4.417969-3.582031-8-8-8zm-400 440c-14.546875-.054688-27.226562-9.914062-30.863281-24h422.863281v24zm0-64h392v24h-422.863281c3.636719-14.085938 16.316406-23.945312 30.863281-24zm392-40h-368v-320h368zm-448-264c.039062-30.910156 25.089844-55.960938 56-56h8v320h-8c-21.769531.003906-42.359375 9.875-56 26.839844zm0 336c.039062-30.910156 25.089844-55.960938 56-56h392v8h-392c-26.507812 0-48 21.492188-48 48s21.492188 48 48 48h392v8h-392c-30.910156-.039062-55.960938-25.089844-56-56zm0 0"/></svg>