<svg height="480pt" viewBox="0 -44 480 480" width="480pt" xmlns="http://www.w3.org/2000/svg"><path d="m472 0h-464c-4.417969 0-8 3.582031-8 8v376c0 4.417969 3.582031 8 8 8h160c36.644531-.050781 67.421875-27.585938 71.527344-64h.945312c4.105469 36.414062 34.882813 63.949219 71.527344 64h160c4.417969 0 8-3.582031 8-8v-376c0-4.417969-3.582031-8-8-8zm-8 312h-216v-8h8c4.417969 0 8-3.582031 8-8s-3.582031-8-8-8h-8v-16h8c4.417969 0 8-3.582031 8-8s-3.582031-8-8-8h-8v-16h8c4.417969 0 8-3.582031 8-8s-3.582031-8-8-8h-8v-16h8c4.417969 0 8-3.582031 8-8s-3.582031-8-8-8h-8v-16h8c4.417969 0 8-3.582031 8-8s-3.582031-8-8-8h-8v-16h8c4.417969 0 8-3.582031 8-8s-3.582031-8-8-8h-8v-16h8c4.417969 0 8-3.582031 8-8s-3.582031-8-8-8h-8v-16h8c4.417969 0 8-3.582031 8-8s-3.582031-8-8-8h-8v-16h8c4.417969 0 8-3.582031 8-8s-3.582031-8-8-8h-8v-16h216zm-448-296h216v16h-8c-4.417969 0-8 3.582031-8 8s3.582031 8 8 8h8v16h-8c-4.417969 0-8 3.582031-8 8s3.582031 8 8 8h8v16h-8c-4.417969 0-8 3.582031-8 8s3.582031 8 8 8h8v16h-8c-4.417969 0-8 3.582031-8 8s3.582031 8 8 8h8v16h-8c-4.417969 0-8 3.582031-8 8s3.582031 8 8 8h8v16h-8c-4.417969 0-8 3.582031-8 8s3.582031 8 8 8h8v16h-8c-4.417969 0-8 3.582031-8 8s3.582031 8 8 8h8v16h-8c-4.417969 0-8 3.582031-8 8s3.582031 8 8 8h8v16h-8c-4.417969 0-8 3.582031-8 8s3.582031 8 8 8h8v8h-216zm152 360h-152v-48h207.359375c-3.992187 27.515625-27.554687 47.945312-55.359375 48zm296 0h-152c-27.804688-.054688-51.367188-20.484375-55.359375-48h207.359375zm0 0"/></svg>