<svg height="480pt" viewBox="-31 0 479 480" width="480pt" xmlns="http://www.w3.org/2000/svg"><path d="m274.484375 170.144531c3.046875-3.707031 4.265625-8.585937 3.3125-13.289062l-22.402344-112c-1.515625-7.46875-8.074219-12.839844-15.695312-12.855469h-62.398438c-7.617187.019531-14.171875 5.390625-15.6875 12.855469l-22.402343 112c-.941407 4.703125.273437 9.578125 3.3125 13.285156 3.039062 3.710937 7.582031 5.859375 12.375 5.859375h107.203124c4.796876.011719 9.34375-2.140625 12.382813-5.855469zm-119.585937-10.144531 22.402343-112h62.398438l22.402343 112zm0 0"/><path d="m392.5 192h-48c-13.253906 0-24 10.746094-24 24s10.746094 24 24 24h16v40c0 13.253906-10.746094 24-24 24h-24v-16c-.027344-22.082031-17.917969-39.972656-40-40h-40v-40h40c22.082031-.027344 39.972656-17.917969 40-40 0-.539062-.054688-1.074219-.160156-1.601562l-29.441406-147.101563c-2.261719-11.203125-12.089844-19.265625-23.519532-19.296875h-101.757812c-11.425782.03125-21.253906 8.089844-23.519532 19.289062l-29.441406 147.109376c-.105468.527343-.160156 1.0625-.160156 1.601562.027344 22.082031 17.917969 39.972656 40 40h40v40h-40c-22.082031.027344-39.972656 17.917969-40 40v16h-24c-13.253906 0-24-10.746094-24-24v-40h16c13.253906 0 24-10.746094 24-24s-10.746094-24-24-24h-48c-13.253906 0-24 10.746094-24 24s10.746094 24 24 24h16v40c.027344 22.082031 17.917969 39.972656 40 40h24c.027344 22.082031 17.917969 39.972656 40 40h40v27.367188c-37.792969 10.820312-63.882812 45.320312-64 84.632812 0 4.417969 3.582031 8 8 8h24c4.417969 0 8-3.582031 8-8-.054688-17.132812 9.117188-32.964844 24-41.449219v41.449219c0 4.417969 3.582031 8 8 8h32c4.417969 0 8-3.582031 8-8v-41.449219c14.882812 8.484375 24.054688 24.316407 24 41.449219 0 4.417969 3.582031 8 8 8h24c4.417969 0 8-3.582031 8-8-.117188-39.3125-26.207031-73.8125-64-84.632812v-27.367188h40c22.082031-.027344 39.972656-17.917969 40-40h24c22.082031-.027344 39.972656-17.917969 40-40v-40h16c13.253906 0 24-10.746094 24-24s-10.746094-24-24-24zm-376 24c0-4.417969 3.582031-8 8-8h48c4.417969 0 8 3.582031 8 8s-3.582031 8-8 8h-48c-4.417969 0-8-3.582031-8-8zm104-47.265625 29.273438-146.335937c.757812-3.726563 4.042968-6.402344 7.847656-6.398438h101.757812c3.804688-.003906 7.089844 2.671875 7.847656 6.398438l29.273438 146.335937c-.398438 12.96875-11.027344 23.273437-24 23.265625h-128c-12.972656.007812-23.601562-10.296875-24-23.265625zm80 39.265625h16v40h-16zm16.160156 186.398438c.050782.527343.15625 1.046874.3125 1.554687.144532.484375.335938.953125.574219 1.398437.230469.4375.496094.851563.800781 1.242188.632813.78125 1.414063 1.433594 2.296875 1.917969.476563.261719.976563.472656 1.496094.632812.253906.078125.457031.246094.71875.304688 30.554687 6.320312 53.597656 31.546875 57.136719 62.550781h-8.136719c-2.96875-24.828125-20.269531-45.585938-44.160156-52.976562l-.277344-.113282c-.226563-.070312-.433594-.183594-.664063-.253906-.367187-.0625-.734374-.097656-1.105468-.097656-.378906-.109375-.761719-.191406-1.152344-.238282-.160156 0-.296875.078126-.449219.085938-1.027343.164062-2.039062.433594-3.015625.800781-.421875.230469-.820312.496094-1.191406.800781-.441406.296876-.855469.640626-1.230469 1.015626-.296875.359374-.566406.742187-.800781 1.144531-.324219.476562-.589844.984375-.800781 1.519531-.046875.136719-.160157.234375-.199219.375-.0625.371094-.097656.746094-.105469 1.121094-.09375.375-.164062.753906-.207031 1.136718v45.679688h-16v-45.679688c-.050781-.390624-.128906-.78125-.230469-1.160156-.007812-.375-.042969-.75-.105469-1.121094 0-.144531-.152343-.238281-.199218-.375-.210938-.53125-.476563-1.035156-.800782-1.503906-.441406-.886718-1.121093-1.628906-1.96875-2.144531-.394531-.320313-.816406-.605469-1.261718-.847656-.972656-.359375-1.976563-.613281-3-.761719-.152344 0-.289063-.085938-.441406-.085938-.390626.046876-.78125.125-1.160157.230469-.375.007813-.75.042969-1.121093.105469-.230469.070312-.4375.183594-.671876.253906l-.269531.113282c-23.878906 7.402343-41.164062 28.15625-44.128906 52.976562h-8.136719c3.527344-30.992188 26.554688-56.222656 57.097656-62.558594.261719-.058594.460938-.226562.71875-.304687.519532-.160157 1.023438-.375 1.496094-.640625.433594-.222656.84375-.492188 1.222656-.800782.394532-.324218.753907-.691406 1.074219-1.085937.320313-.386719.601563-.800781.839844-1.242187.238281-.445313.429687-.914063.574219-1.398438.15625-.507812.261718-1.027344.3125-1.554688.070312-.261718.125-.527343.160156-.796874v-33.617188h16v33.601562c.035156.269532.089844.535157.160156.796876zm79.839844-74.398438c0 13.253906-10.746094 24-24 24h-128c-13.253906 0-24-10.746094-24-24v-32c0-13.253906 10.746094-24 24-24h128c13.253906 0 24 10.746094 24 24zm96-96h-48c-4.417969 0-8-3.582031-8-8s3.582031-8 8-8h48c4.417969 0 8 3.582031 8 8s-3.582031 8-8 8zm0 0"/></svg>