<svg height="479pt" viewBox="-79 0 479 479.9606" width="479pt" xmlns="http://www.w3.org/2000/svg"><path d="m160.480469 71.960938c13.253906 0 24-10.746094 24-24 0-13.253907-10.746094-24-24-24-13.253907 0-24 10.746093-24 24 0 13.253906 10.746093 24 24 24zm0-32c4.417969 0 8 3.582031 8 8 0 4.417968-3.582031 8-8 8s-8-3.582032-8-8c0-4.417969 3.582031-8 8-8zm0 0"/><path d="m312.480469 55.960938h-100.183594l-3.90625-9.769532c-.941406-25.777344-22.113281-46.191406-47.910156-46.191406s-46.96875 20.414062-47.914063 46.191406l-3.902344 9.769532h-100.183593c-4.417969 0-8 3.582031-8 8v408c0 4.417968 3.582031 8 8 8h304c4.417969 0 8-3.582032 8-8v-408c0-4.417969-3.582031-8-8-8zm-230.625 76.488281c1.488281 2.195312 3.972656 3.511719 6.625 3.511719h144c2.65625 0 5.140625-1.316407 6.628906-3.515626 1.492187-2.199218 1.792969-4.996093.804687-7.460937l-8.417968-21.023437h40.984375v328h-224v-328h40.984375l-8.417969 21.023437c-.984375 2.46875-.683594 5.265625.808594 7.464844zm78.625-116.488281c17.671875 0 32 14.328124 32 32 .050781.46875.144531.933593.28125 1.382812.039062.542969.136719 1.078125.285156 1.601562l27.617187 69.015626h-120.367187l27.617187-69.023438c.152344-.523438.25-1.058594.285157-1.601562.140625-.449219.234375-.910157.28125-1.375 0-17.671876 14.328125-32 32-32zm144 448h-288v-392h85.785156l-6.402344 16h-55.382812c-4.417969 0-8 3.582031-8 8v344c0 4.417968 3.582031 8 8 8h240c4.417969 0 8-3.582032 8-8v-344c0-4.417969-3.582031-8-8-8h-55.382813l-6.402344-16h85.785157zm0 0"/></svg>