<svg height="486pt" viewBox="-75 0 486 486.84917" width="486pt" xmlns="http://www.w3.org/2000/svg"><path d="m296.425781 126.847656h-40v-8c-.046875-10.714844-7.195312-20.101562-17.511719-23l34.308594-59.398437c4.519532-7.445313 4.648438-16.753907.339844-24.324219-4.308594-7.566406-12.378906-12.2070312-21.085938-12.125-8.710937.0859375-16.691406 4.878906-20.851562 12.527344l-47.496094 82.320312h-111.703125c-13.257812 0-24 10.746094-24 24v174.183594c-2.488281 1.730469-4.960937 3.523438-7.464843 5.480469-26.136719 20.839843-40.535157 47.945312-40.535157 76.335937 0 61.761719 68.183594 112 152 112 83.816407 0 152-50.238281 152-112 0-28.390625-14.402343-55.496094-40.578125-76.367187-2.464844-1.933594-4.941406-3.605469-7.421875-5.328125v-6.304688h40c22.078125-.023437 39.972657-17.917968 40-40v-80c-.027343-22.078125-17.921875-39.972656-40-40zm-56 248c0 19.570313-34.28125 48-88 48-53.722656 0-88-28.429687-88-48 .277344-5.8125 2.425781-11.382812 6.125-15.878906 6.875 8.78125 15.121094 16.398438 24.417969 22.550781.550781.265625 1.105469.535157 1.65625.800781.875.351563 1.808594.539063 2.75.5625h106.175781c.949219-.023437 1.882813-.210937 2.761719-.5625.273438-.105468.542969-.230468.800781-.375.300781-.121093.59375-.257812.878907-.417968 9.234374-6.1875 17.429687-13.800782 24.289062-22.550782 3.707031 4.488282 5.859375 10.058594 6.144531 15.871094zm5.09375-354.335937c2.191407-3.832031 7.070313-5.164063 10.90625-2.984375 2.480469 1.460937 4.003907 4.125 4 7-.015625 1.40625-.390625 2.785156-1.089843 4l-38.328126 66.320312h-18.398437zm-181.09375 98.335937c0-4.417968 3.582031-8 8-8h160c4.417969 0 8 3.582032 8 8v176c.039063 11.558594-2.230469 23.007813-6.679687 33.671875-6.445313 15.460938-17.175782 28.757813-30.921875 38.328125h-100.742188c-23.632812-16.34375-37.714843-43.265625-37.65625-72zm224 256c0 52.9375-61.007812 96-136 96-74.992187 0-136-43.0625-136-96 1.015625-24.976562 13.339844-48.136718 33.488281-62.933594 1.242188 7.785157 3.390626 15.398438 6.398438 22.6875 1.492188 3.554688 3.179688 7.027344 5.054688 10.398438-7.886719 7.984375-12.503907 18.632812-12.941407 29.847656 0 30.273438 42.710938 64 104 64 61.285157 0 104-33.726562 104-64-.476562-11.199218-5.09375-21.824218-12.953125-29.816406 1.878906-3.367188 3.566406-6.839844 5.054688-10.398438 3.011718-7.304687 5.160156-14.9375 6.402344-22.742187 20.152343 14.804687 32.476562 37.972656 33.496093 62.957031zm32-128c0 13.257813-10.746093 24-24 24h-40v-128h40c13.253907 0 24 10.746094 24 24zm0 0"/></svg>