<svg height="480pt" viewBox="0 -44 480 480" width="480pt" xmlns="http://www.w3.org/2000/svg"><path d="m264 0h-240c-13.253906 0-24 10.746094-24 24v208c0 13.253906 10.746094 24 24 24h88v28.664062c-28.960938 8.71875-48 28.800782-48 51.335938 0 30.878906 35.886719 56 80 56s80-25.121094 80-56c0-22.535156-19.039062-42.617188-48-51.335938v-28.664062h88c13.253906 0 24-10.746094 24-24v-208c0-13.253906-10.746094-24-24-24zm-56 336c0 21.679688-29.3125 40-64 40s-64-18.320312-64-40c0-14.238281 12.527344-27.335938 32-34.449219v26.449219c0 4.417969 3.582031 8 8 8h48c4.417969 0 8-3.582031 8-8v-26.449219c19.472656 7.113281 32 20.210938 32 34.449219zm-48-16h-32v-64h32zm112-88c0 4.417969-3.582031 8-8 8h-240c-4.417969 0-8-3.582031-8-8v-208c0-4.417969 3.582031-8 8-8h240c4.417969 0 8 3.582031 8 8zm0 0"/><path d="m248 32h-208c-4.417969 0-8 3.582031-8 8v176c0 4.417969 3.582031 8 8 8h208c4.417969 0 8-3.582031 8-8v-176c0-4.417969-3.582031-8-8-8zm-8 176h-192v-160h192zm0 0"/><path d="m464 0h-144c-8.835938 0-16 7.164062-16 16v320c0 8.835938 7.164062 16 16 16h144c8.835938 0 16-7.164062 16-16v-320c0-8.835938-7.164062-16-16-16zm-120 336v-32h96v32zm112 0v-40c0-4.417969-3.582031-8-8-8h-112c-4.417969 0-8 3.582031-8 8v40h-8v-320h144v320zm0 0"/><path d="m448 40h-112c-4.417969 0-8 3.582031-8 8v80c0 4.417969 3.582031 8 8 8h112c4.417969 0 8-3.582031 8-8v-80c0-4.417969-3.582031-8-8-8zm-8 16v24h-96v-24zm-96 64v-24h96v24zm0 0"/><path d="m392 176c-16.09375-.019531-29.6875 11.9375-31.71875 27.90625-2.035156 15.964844 8.132812 30.945312 23.71875 34.957031v9.136719c0 4.417969 3.582031 8 8 8s8-3.582031 8-8v-9.136719c15.585938-4.011719 25.753906-18.992187 23.71875-34.957031-2.03125-15.96875-15.625-27.925781-31.71875-27.90625zm8 45.777344v-13.777344c0-4.417969-3.582031-8-8-8s-8 3.582031-8 8v13.777344c-6.273438-3.621094-9.328125-11.003906-7.453125-18 1.871094-6.992188 8.210937-11.859375 15.453125-11.859375s13.582031 4.867187 15.453125 11.859375c1.875 6.996094-1.179687 14.378906-7.453125 18zm0 0"/><path d="m376 312h-16c-4.417969 0-8 3.582031-8 8s3.582031 8 8 8h16c4.417969 0 8-3.582031 8-8s-3.582031-8-8-8zm0 0"/><path d="m424 312h-16c-4.417969 0-8 3.582031-8 8s3.582031 8 8 8h16c4.417969 0 8-3.582031 8-8s-3.582031-8-8-8zm0 0"/></svg>