<svg height="480pt" viewBox="0 -84 480 480" width="480pt" xmlns="http://www.w3.org/2000/svg"><path d="m456 273.136719v-17.136719h8c4.417969 0 8-3.582031 8-8v-240c0-4.417969-3.582031-8-8-8h-448c-4.417969 0-8 3.582031-8 8v240c0 4.417969 3.582031 8 8 8h8v17.136719c-14.085938 3.636719-23.9453125 16.316406-24 30.863281 0 4.417969 3.582031 8 8 8h48c4.417969 0 8-3.582031 8-8-.054688-14.546875-9.914062-27.226562-24-30.863281v-17.136719h8c4.417969 0 8-3.582031 8-8v-136h208v136c0 4.417969 3.582031 8 8 8h8v17.136719c-14.085938 3.636719-23.945312 16.316406-24 30.863281 0 4.417969 3.582031 8 8 8h48c4.417969 0 8-3.582031 8-8-.054688-14.546875-9.914062-27.226562-24-30.863281v-17.136719h144v17.136719c-14.085938 3.636719-23.945312 16.316406-24 30.863281 0 4.417969 3.582031 8 8 8h48c4.417969 0 8-3.582031 8-8-.054688-14.546875-9.914062-27.226562-24-30.863281zm-410.152344 22.863281h-27.695312c2.859375-4.941406 8.136718-7.984375 13.847656-7.984375s10.988281 3.042969 13.847656 7.984375zm256 0h-27.695312c2.859375-4.941406 8.136718-7.984375 13.847656-7.984375s10.988281 3.042969 13.847656 7.984375zm-21.847656-56v-64h48v24c0 4.417969 3.582031 8 8 8h64c4.417969 0 8-3.582031 8-8v-24h48v64zm48-192v24c0 4.417969 3.582031 8 8 8h64c4.417969 0 8-3.582031 8-8v-24h48v48h-176v-48zm16 0h48v16h-48zm0 64h48v16h-48zm-64 0h48v24c0 4.417969 3.582031 8 8 8h64c4.417969 0 8-3.582031 8-8v-24h48v48h-176zm64 64h48v16h-48zm-320-160h432v16h-432zm16 224h-16v-192h16zm16-192h208v48h-208zm378.152344 248c2.859375-4.941406 8.136718-7.984375 13.847656-7.984375s10.988281 3.042969 13.847656 7.984375zm0 0"/></svg>