<svg height="480pt" viewBox="0 -32 480.02643 480" width="480pt" xmlns="http://www.w3.org/2000/svg"><path d="m477.65625 98.355469c-34.011719-33.871094-86.75-40.144531-127.761719-15.203125l-54.125-53.4375c-.773437-12.097656-8.371093-22.699219-19.582031-27.3125-11.207031-4.617188-24.066406-2.4375002-33.132812 5.609375h-123.054688c-2.125.007812-4.15625.855469-5.664062 2.351562l-78.023438 78.023438c-16.125 1.777343-28.328125 15.402343-28.328125 31.625 0 16.21875 12.203125 29.84375 28.328125 31.621093l52.0625 52.066407c.734375 6.390625 3.390625 12.410156 7.625 17.253906v36.703125c-56 7.496094-96 39.65625-96 78.355469 0 44.109375 53.832031 80 120 80s120-35.890625 120-80c0-38.699219-40-70.859375-96-78.355469v-36.703125c7.882812-8.871094 10.148438-21.40625 5.871094-32.476563-4.277344-11.070312-14.382813-18.824218-26.183594-20.089843l-48.375-48.375 64-64h103.742188c5.203124 4.554687 11.757812 7.285156 18.65625 7.765625l53.488281 54.03125c-24.996094 41.03125-18.71875 93.832031 15.199219 127.859375 3.125 3.121093 8.191406 3.121093 11.3125 0l136-136c3.109374-3.140625 3.082031-8.207031-.054688-11.3125zm-197.65625-66.34375c0 8.835937-7.164062 16-16 16s-16-7.164063-16-16c0-8.839844 7.164062-16 16-16s16 7.160156 16 16zm-144 8c-2.125.007812-4.15625.855469-5.664062 2.351562l-62.398438 62.398438c-2.9375-5.351563-7.339844-9.753907-12.691406-12.6875l68.066406-68.0625h109.824219c-1.515625 5.222656-1.515625 10.773437 0 16zm-8 288h-16v-97.136719c5.226562 1.515625 10.773438 1.515625 16 0zm-35.953125-143.265625-36.800781-36.800782c5.351562-2.933593 9.753906-7.335937 12.691406-12.6875l36.796875 36.800782c-5.347656 2.933594-9.75 7.335937-12.6875 12.6875zm-68.046875-64.734375c0-8.839844 7.164062-16 16-16s16 7.160156 16 16c0 8.835937-7.164062 16-16 16s-16-7.164063-16-16zm200 216c0 35.285156-46.65625 64-104 64s-104-28.714844-104-64c0-29.5625 33.824219-55.425781 80-62.265625v62.265625c0 4.417969 3.582031 8 8 8h32c4.417969 0 8-3.582031 8-8v-62.265625c46.175781 6.839844 80 32.703125 80 62.265625zm-88-136c0 8.835937-7.164062 16-16 16s-16-7.164063-16-16c0-8.839844 7.164062-16 16-16s16 7.160156 16 16zm144-140.464844c4.777344-2.785156 8.753906-6.761719 11.542969-11.535156l45.167969 44.574219c-2.167969 1.839843-4.320313 3.703124-6.398438 5.753906-2.082031 2.046875-3.863281 4.148437-5.6875 6.292968zm56.230469 168.894531c-29.191407-35.035156-26.851563-86.554687 5.398437-118.800781 32.253906-32.246094 83.769532-34.574219 118.804688-5.375zm0 0"/></svg>