<svg height="480pt" viewBox="0 0 480 480.10822" width="480pt" xmlns="http://www.w3.org/2000/svg"><path d="m472.054688 320h-40v-184c0-4.417969-3.582032-8-8-8h-256c-4.417969 0-8 3.582031-8 8v184h-32v-312c0-4.417969-3.582032-8-8-8h-112c-4.417969 0-8.0000005 3.582031-8.0000005 8v32c0 4.417969 3.5820315 8 8.0000005 8h72v344c0 4.417969 3.582031 8 8 8h28.320312c-17.296875 19.21875-16.261719 48.679688 2.339844 66.640625 18.597656 17.957031 48.078125 17.957031 66.679687 0 18.597657-17.960937 19.632813-47.421875 2.339844-66.640625h176.640625c-17.296875 19.21875-16.261719 48.679688 2.339844 66.640625 18.597656 17.957031 48.078125 17.957031 66.679687 0 18.597657-17.960937 19.632813-47.421875 2.339844-66.640625h36.320313c4.417968 0 8-3.582031 8-8v-64c0-4.417969-3.582032-8-8-8zm-56-96h-240v-32h240zm-240 16h240v32h-240zm0-96h240v32h-240zm0 144h240v32h-240zm-160-272h96v16h-96zm96 32v272h-16v-272zm72 384c0 17.671875-14.328126 32-32 32-17.671876 0-32-14.328125-32-32s14.328124-32 32-32c17.671874 0 32 14.328125 32 32zm248 0c0 17.671875-14.328126 32-32 32-17.671876 0-32-14.328125-32-32s14.328124-32 32-32c17.671874 0 32 14.328125 32 32zm32-48h-368v-48h368zm0 0"/><path d="m152.054688 456c13.253906 0 24-10.746094 24-24s-10.746094-24-24-24c-13.253907 0-24 10.746094-24 24s10.746093 24 24 24zm0-32c4.417968 0 8 3.582031 8 8s-3.582032 8-8 8c-4.417969 0-8-3.582031-8-8s3.582031-8 8-8zm0 0"/><path d="m400.054688 456c13.253906 0 24-10.746094 24-24s-10.746094-24-24-24c-13.253907 0-24 10.746094-24 24s10.746093 24 24 24zm0-32c4.417968 0 8 3.582031 8 8s-3.582032 8-8 8c-4.417969 0-8-3.582031-8-8s3.582031-8 8-8zm0 0"/></svg>