<svg height="480pt" viewBox="-80 0 480 480" width="480pt" xmlns="http://www.w3.org/2000/svg"><path d="m312 72h-128v-64c0-4.417969-3.582031-8-8-8s-8 3.582031-8 8v64h-16v-64c0-4.417969-3.582031-8-8-8s-8 3.582031-8 8v64h-128c-4.417969 0-8 3.582031-8 8v392c0 4.417969 3.582031 8 8 8h304c4.417969 0 8-3.582031 8-8v-392c0-4.417969-3.582031-8-8-8zm-144 16v16h-16v-16zm-32 0v16c-4.417969 0-8 3.582031-8 8s3.582031 8 8 8h48c4.417969 0 8-3.582031 8-8s-3.582031-8-8-8v-16h120v56h-288v-56zm-120 376v-304h288v304zm0 0"/><path d="m188.28125 276.265625c15.625-15.621094 15.625-40.949219.003906-56.574219-15.621094-15.621094-40.949218-15.621094-56.570312 0-15.621094 15.625-15.621094 40.953125.003906 56.574219-40.222656 12.453125-67.664062 49.625-67.71875 91.734375 0 4.417969 3.582031 8 8 8h176c4.417969 0 8-3.582031 8-8-.054688-42.109375-27.496094-79.28125-67.71875-91.734375zm-52.28125-28.265625c0-13.253906 10.746094-24 24-24s24 10.746094 24 24-10.746094 24-24 24-24-10.746094-24-24zm-55.601562 112c4.105468-40.882812 38.511718-72.011719 79.601562-72.011719s75.496094 31.128907 79.601562 72.011719zm0 0"/><path d="m248 416h-176c-4.417969 0-8 3.582031-8 8s3.582031 8 8 8h176c4.417969 0 8-3.582031 8-8s-3.582031-8-8-8zm0 0"/></svg>