<svg height="480pt" viewBox="0 -128 480 480" width="480pt" xmlns="http://www.w3.org/2000/svg"><path d="m480 8c0-.238281-.121094-.449219-.136719-.6875-.046875-.542969-.15625-1.082031-.320312-1.601562-.140625-.515626-.339844-1.015626-.589844-1.488282-.113281-.207031-.128906-.445312-.257813-.648437-.175781-.195313-.363281-.382813-.558593-.558594-.34375-.429687-.730469-.824219-1.160157-1.167969-.375-.308594-.78125-.574218-1.207031-.800781-.449219-.246094-.921875-.445313-1.410156-.597656-.519531-.160157-1.058594-.261719-1.597656-.3125-.253907-.0625002-.507813-.105469-.761719-.136719h-464c-.28125 0-.519531.136719-.800781.160156-1.042969.105469-2.054688.414063-2.976563.910156-.421875.230469-.824218.496094-1.199218.800782-.429688.351562-.820313.746094-1.167969 1.175781-.167969.210937-.398438.335937-.550781.5625-.152344.222656-.144532.4375-.257813.648437-.25.472657-.449219.96875-.589844 1.484376-.164062.523437-.273437 1.058593-.320312 1.601562 0 .242188-.136719.449219-.136719.6875v207.96875c0 4.417969 3.582031 8 8 8h464c4.417969 0 8-3.582031 8-8zm-464 14.808594 105.054688 68.800781-105.054688 105.078125zm224 127.589844-205.183594-134.398438h410.398438zm-105.28125-49.839844 100.898438 66.105468c.09375.0625.199218.078126.292968.136719.433594.246094.886719.457031 1.355469.625.214844.078125.421875.183594.644531.246094.652344.175781 1.320313.273437 1.992188.28125l.097656.046875h.089844c.671875-.007812 1.339844-.101562 1.988281-.28125.226563-.0625.433594-.167969.648437-.246094.46875-.167968.921876-.375 1.351563-.625.097656-.054687.203125-.070312.296875-.136718l100.90625-66.117188 107.40625 107.40625h-425.375zm224.226562-8.957032 105.054688-68.792968v173.878906zm0 0"/></svg>