<svg height="480pt" viewBox="-63 0 479 480" width="480pt" xmlns="http://www.w3.org/2000/svg"><path d="m344.5 0h-336c-4.417969 0-8 3.582031-8 8v464c0 4.417969 3.582031 8 8 8h336c4.417969 0 8-3.582031 8-8v-464c0-4.417969-3.582031-8-8-8zm-8 464h-320v-448h320zm0 0"/><path d="m40.5 456h272c4.417969 0 8-3.582031 8-8v-408c0-4.417969-3.582031-8-8-8h-272c-4.417969 0-8 3.582031-8 8v408c0 4.417969 3.582031 8 8 8zm8-216h256v80h-256zm256-16h-256v-80h256zm0 216h-256v-104h256zm-256-392h256v80h-256zm0 0"/><path d="m208.5 64h-64c-4.417969 0-8 3.582031-8 8 0 22.089844 17.910156 40 40 40s40-17.910156 40-40c0-4.417969-3.582031-8-8-8zm-32 32c-10.167969-.011719-19.230469-6.417969-22.632812-16h45.265624c-3.402343 9.582031-12.464843 15.988281-22.632812 16zm0 0"/><path d="m176.5 208c22.082031-.027344 39.972656-17.917969 40-40 0-4.417969-3.582031-8-8-8h-64c-4.417969 0-8 3.582031-8 8 .027344 22.082031 17.917969 39.972656 40 40zm22.632812-32c-3.386718 9.597656-12.457031 16.011719-22.632812 16.011719s-19.246094-6.414063-22.632812-16.011719zm0 0"/><path d="m208.5 256h-64c-4.417969 0-8 3.582031-8 8 0 22.089844 17.910156 40 40 40s40-17.910156 40-40c0-4.417969-3.582031-8-8-8zm-32 32c-10.167969-.011719-19.230469-6.417969-22.632812-16h45.265624c-3.402343 9.582031-12.464843 15.988281-22.632812 16zm0 0"/><path d="m176.5 400c22.082031-.027344 39.972656-17.917969 40-40 0-4.417969-3.582031-8-8-8h-64c-4.417969 0-8 3.582031-8 8 .027344 22.082031 17.917969 39.972656 40 40zm22.632812-32c-3.386718 9.597656-12.457031 16.011719-22.632812 16.011719s-19.246094-6.414063-22.632812-16.011719zm0 0"/></svg>