<svg height="480pt" viewBox="-72 0 480 480" width="480pt" xmlns="http://www.w3.org/2000/svg"><path d="m328 0h-320c-4.417969 0-8 3.582031-8 8v464c0 4.417969 3.582031 8 8 8h320c4.417969 0 8-3.582031 8-8v-464c0-4.417969-3.582031-8-8-8zm-8 16v128h-128v-22.496094c18.816406-10.863281 27.988281-33.007812 22.363281-53.992187-5.621093-20.984375-24.636719-35.578125-46.363281-35.578125s-40.742188 14.59375-46.363281 35.578125c-5.625 20.984375 3.546875 43.128906 22.363281 53.992187v22.496094h-128v-128zm-152 184c17.671875 0 32 14.328125 32 32s-14.328125 32-32 32-32-14.328125-32-32 14.328125-32 32-32zm0-16c-2.683594.015625-5.359375.257812-8 .71875v-24.71875h16v24.71875c-2.640625-.460938-5.316406-.703125-8-.71875zm-8-40v-16.71875c5.289062.957031 10.710938.957031 16 0v16.71875zm8-32c-17.671875 0-32-14.328125-32-32s14.328125-32 32-32 32 14.328125 32 32-14.328125 32-32 32zm-152 352v-304h128v30.496094c-18.816406 10.863281-27.988281 33.007812-22.363281 53.992187 5.621093 20.984375 24.636719 35.578125 46.363281 35.578125s40.742188-14.59375 46.363281-35.578125c5.625-20.984375-3.546875-43.128906-22.363281-53.992187v-30.496094h128v304zm0 0"/><path d="m168 56c-13.253906 0-24 10.746094-24 24s10.746094 24 24 24 24-10.746094 24-24-10.746094-24-24-24zm0 32c-4.417969 0-8-3.582031-8-8s3.582031-8 8-8 8 3.582031 8 8-3.582031 8-8 8zm0 0"/><path d="m168 256c13.253906 0 24-10.746094 24-24s-10.746094-24-24-24-24 10.746094-24 24 10.746094 24 24 24zm0-32c4.417969 0 8 3.582031 8 8s-3.582031 8-8 8-8-3.582031-8-8 3.582031-8 8-8zm0 0"/></svg>