<svg height="480pt" viewBox="-8 0 480 480" width="480pt" xmlns="http://www.w3.org/2000/svg"><path d="m296 0h-128c-4.417969 0-8 3.582031-8 8v464c0 4.417969 3.582031 8 8 8h128c4.417969 0 8-3.582031 8-8v-464c0-4.417969-3.582031-8-8-8zm-8 464h-112v-448h112zm0 0"/><path d="m136 0h-128c-4.417969 0-8 3.582031-8 8v464c0 4.417969 3.582031 8 8 8h128c4.417969 0 8-3.582031 8-8v-464c0-4.417969-3.582031-8-8-8zm-8 464h-112v-448h112zm0 0"/><path d="m456 0h-128c-4.417969 0-8 3.582031-8 8v464c0 4.417969 3.582031 8 8 8h128c4.417969 0 8-3.582031 8-8v-464c0-4.417969-3.582031-8-8-8zm-8 464h-112v-448h112zm0 0"/><path d="m72 424c13.253906 0 24-10.746094 24-24s-10.746094-24-24-24-24 10.746094-24 24 10.746094 24 24 24zm0-32c4.417969 0 8 3.582031 8 8s-3.582031 8-8 8-8-3.582031-8-8 3.582031-8 8-8zm0 0"/><path d="m72 448c26.507812 0 48-21.492188 48-48s-21.492188-48-48-48-48 21.492188-48 48c.027344 26.5 21.5 47.972656 48 48zm0-80c17.671875 0 32 14.328125 32 32s-14.328125 32-32 32-32-14.328125-32-32 14.328125-32 32-32zm0 0"/><path d="m232 424c13.253906 0 24-10.746094 24-24s-10.746094-24-24-24-24 10.746094-24 24 10.746094 24 24 24zm0-32c4.417969 0 8 3.582031 8 8s-3.582031 8-8 8-8-3.582031-8-8 3.582031-8 8-8zm0 0"/><path d="m232 448c26.507812 0 48-21.492188 48-48s-21.492188-48-48-48-48 21.492188-48 48c.027344 26.5 21.5 47.972656 48 48zm0-80c17.671875 0 32 14.328125 32 32s-14.328125 32-32 32-32-14.328125-32-32 14.328125-32 32-32zm0 0"/><path d="m392 424c13.253906 0 24-10.746094 24-24s-10.746094-24-24-24-24 10.746094-24 24 10.746094 24 24 24zm0-32c4.417969 0 8 3.582031 8 8s-3.582031 8-8 8-8-3.582031-8-8 3.582031-8 8-8zm0 0"/><path d="m392 448c26.507812 0 48-21.492188 48-48s-21.492188-48-48-48-48 21.492188-48 48c.027344 26.5 21.5 47.972656 48 48zm0-80c17.671875 0 32 14.328125 32 32s-14.328125 32-32 32-32-14.328125-32-32 14.328125-32 32-32zm0 0"/><path d="m40 336h64c4.417969 0 8-3.582031 8-8v-288c0-4.417969-3.582031-8-8-8h-64c-4.417969 0-8 3.582031-8 8v288c0 4.417969 3.582031 8 8 8zm8-288h48v272h-48zm0 0"/><path d="m200 336h64c4.417969 0 8-3.582031 8-8v-288c0-4.417969-3.582031-8-8-8h-64c-4.417969 0-8 3.582031-8 8v288c0 4.417969 3.582031 8 8 8zm8-288h48v272h-48zm0 0"/><path d="m360 336h64c4.417969 0 8-3.582031 8-8v-288c0-4.417969-3.582031-8-8-8h-64c-4.417969 0-8 3.582031-8 8v288c0 4.417969 3.582031 8 8 8zm8-288h48v272h-48zm0 0"/></svg>