<svg height="480pt" viewBox="0 0 480 480" width="480pt" xmlns="http://www.w3.org/2000/svg"><path d="m280 0h-256c-13.253906 0-24 10.746094-24 24v432c0 13.253906 10.746094 24 24 24h256c13.253906 0 24-10.746094 24-24v-432c0-13.253906-10.746094-24-24-24zm-256 16h256c4.417969 0 8 3.582031 8 8v208h-272v-208c0-4.417969 3.582031-8 8-8zm256 448h-256c-4.417969 0-8-3.582031-8-8v-208h272v208c0 4.417969-3.582031 8-8 8zm0 0"/><path d="m264 272h-224c-4.417969 0-8 3.582031-8 8v160c0 4.417969 3.582031 8 8 8h224c4.417969 0 8-3.582031 8-8v-160c0-4.417969-3.582031-8-8-8zm-8 160h-208v-144h208zm0 0"/><path d="m472 224h-32.601562l-6.710938-36.902344c14.449219-13.4375 19.203125-34.347656 11.984375-52.710937-7.21875-18.367188-24.941406-30.441407-44.671875-30.441407s-37.453125 12.074219-44.671875 30.441407c-7.21875 18.363281-2.464844 39.273437 11.984375 52.710937l-6.710938 36.902344h-32.601562c-4.417969 0-8 3.582031-8 8v88c0 4.417969 3.582031 8 8 8h144c4.417969 0 8-3.582031 8-8v-88c0-4.417969-3.582031-8-8-8zm-72-104c13.773438 0 26.003906 8.8125 30.359375 21.878906 4.355469 13.070313-.140625 27.457032-11.160156 35.722656-.289063.269532-.554688.558594-.800781.871094-.417969.378906-.796876.804688-1.125 1.261719-.25.445313-.453126.914063-.609376 1.402344-.214843.457031-.378906.9375-.496093 1.429687-.0625.578125-.0625 1.160156 0 1.738282-.027344.371093-.027344.746093 0 1.121093l14.230469 78.574219h-60.796876l14.277344-78.566406c.027344-.375.027344-.75 0-1.121094.066406-.578125.066406-1.160156 0-1.738281-.113281-.492188-.28125-.972657-.496094-1.429688-.152343-.488281-.355468-.957031-.605468-1.402343-.332032-.457032-.710938-.882813-1.128906-1.261719-.246094-.3125-.511719-.601563-.800782-.871094-11.019531-8.257813-15.519531-22.636719-11.175781-35.703125s16.558594-21.890625 30.328125-21.90625zm64 192h-128v-72h21.6875l-5.550781 30.566406c-.425781 2.335938.207031 4.734375 1.726562 6.554688 1.515625 1.824218 3.765625 2.875 6.136719 2.878906h80c2.371094-.003906 4.621094-1.054688 6.136719-2.878906 1.519531-1.820313 2.152343-4.21875 1.726562-6.554688l-5.550781-30.566406h21.6875zm0 0"/></svg>