<svg height="480pt" viewBox="-152 0 480 480.624" width="480pt" xmlns="http://www.w3.org/2000/svg"><path d="m176.257812 232.351562c-.023437-.929687-.207031-1.851562-.546874-2.71875-.070313-.167968-.183594-.304687-.261719-.472656-.203125-.46875-.449219-.914062-.738281-1.335937l-38.398438-51.199219c4.417969 0 8-3.582031 8-8v-32c0-4.417969-3.582031-8-8-8h-9.054688l-14.945312-104.625c0-13.253906-10.746094-24-24-24s-24 10.746094-24 24l-14.945312 104.625h-9.054688c-4.417969 0-8 3.582031-8 8v32c0 4.417969 3.582031 8 8 8l-38.402344 51.199219c-.285156.421875-.53125.867187-.734375 1.335937-.078125.167969-.191406.304688-.253906.472656-.347656.867188-.535156 1.785157-.554687 2.71875 0 .097657-.054688.175782-.054688.273438v224c0 13.253906 10.746094 24 24 24h128c13.253906 0 24-10.746094 24-24v-224c0-.097656-.046875-.175781-.054688-.273438zm-96-206.589843c.042969-.378907.0625-.757813.054688-1.136719 0-4.417969 3.582031-8 8-8s8 3.582031 8 8c0 .378906.023438.757812.078125 1.136719l14.699219 102.863281h-45.554688zm-31.945312 118.863281h80v16h-80zm12 32h56l36 48h-128zm100 280c0 4.417969-3.582031 8-8 8h-128c-4.417969 0-8-3.582031-8-8v-216h144zm0 0"/></svg>