<svg height="479pt" viewBox="-159 0 479 479.99079" width="479pt" xmlns="http://www.w3.org/2000/svg"><path d="m80.53125 40c-13.257812 0-24 10.746094-24 24v80c0 13.253906 10.742188 24 24 24 13.253906 0 24-10.746094 24-24v-80c0-13.253906-10.746094-24-24-24zm8 104c0 4.417969-3.582031 8-8 8s-8-3.582031-8-8v-80c0-4.417969 3.582031-8 8-8s8 3.582031 8 8zm0 0"/><path d="m144.53125 40c-.027344-22.082031-17.921875-39.9726562-40-40h-48c-21.921875-.046875-39.777344 17.59375-40 39.511719l-16 264c-.285156 4.234375 1.210938 8.390625 4.125 11.472656 3.101562 3.230469 7.394531 5.042969 11.875 5.015625h3.054688l28.945312 57.886719v94.113281c0 2.667969 1.335938 5.160156 3.554688 6.644531 2.21875 1.480469 5.03125 1.757813 7.5.738281.972656-.398437 1.855468-.984374 2.601562-1.726562l48-48c.738281-.746094 1.328125-1.628906 1.726562-2.601562.402344-.96875.609376-2.003907.617188-3.054688v-46.113281l28.941406-57.886719h3.058594c4.46875.027344 8.753906-1.78125 11.855469-5 2.925781-3.082031 4.429687-7.246094 4.144531-11.488281zm-48 380.6875-32 32v-68.6875h32zm3.054688-52.6875h-38.113282l-24-48h86.113282zm44.945312-64-128 .488281 16-264.488281c0-13.253906 10.742188-24 24-24h48c6.4375.042969 12.589844 2.652344 17.09375 7.25 4.507812 4.597656 6.992188 10.800781 6.90625 17.238281l16.277344 263.464844c-.085938.035156-.183594.050781-.277344.046875zm0 0"/></svg>