<svg height="480pt" viewBox="0 -92 480 480" width="480pt" xmlns="http://www.w3.org/2000/svg"><path d="m463.664062 89.335938c-3.445312-50.296876-45.25-89.335938-95.664062-89.335938s-92.21875 39.039062-95.664062 89.335938c-9.722657 3.277343-16.289063 12.375-16.335938 22.632812v16c0 39.765625-32.234375 72-72 72s-72-32.234375-72-72c.105469-27.609375-10.84375-54.113281-30.398438-73.597656-19.488281-19.558594-45.992187-30.507813-73.601562-30.402344-4.417969 0-8 3.582031-8 8v248c0 8.835938 7.164062 16 16 16h448c8.835938 0 16-7.164062 16-16v-168c-.046875-10.257812-6.613281-19.355469-16.335938-22.632812zm-95.664062-73.367188c41.0625.050781 75.4375 31.148438 79.59375 72h-8.066406c-4.179688-36.339844-34.949219-63.769531-71.527344-63.769531s-67.347656 27.429687-71.527344 63.769531h-8.066406c4.15625-40.851562 38.53125-71.949219 79.59375-72zm30.863281 72c-3.589843-14.113281-16.300781-23.992188-30.863281-23.992188s-27.273438 9.878907-30.863281 23.992188h-24.496094c3.953125-27.535156 27.542969-47.976562 55.359375-47.976562s51.40625 20.441406 55.359375 47.976562zm-17.015625 0h-27.695312c2.859375-4.941406 8.136718-7.984375 13.847656-7.984375s10.988281 3.042969 13.847656 7.984375zm82.152344 192h-448v-239.648438c45.347656 4.078126 80.066406 42.121094 80 87.648438 0 48.601562 39.398438 88 88 88s88-39.398438 88-88v-16c0-4.417969 3.582031-8 8-8h176c4.417969 0 8 3.582031 8 8zm0 0"/></svg>