<svg height="480pt" viewBox="0 -8 480 480" width="480pt" xmlns="http://www.w3.org/2000/svg"><path d="m456 192h-176v-24c-.042969-20.984375 4.820312-41.6875 14.207031-60.457031 9.140625-17.90625 22.390625-33.394531 38.664063-45.199219.144531-.105469.207031-.273438.335937-.382812.402344-.371094.765625-.785157 1.082031-1.234376.300782-.382812.566407-.792968.800782-1.222656.199218-.449218.359375-.914062.46875-1.390625.164062-.523437.269531-1.058593.320312-1.601562 0-.175781.105469-.328125.105469-.503907v-16.007812c-.027344-22.082031-17.921875-39.9726562-40-40h-111.984375c-22.082031.0273438-39.972656 17.917969-40 40v16c0 .175781.089844.328125.105469.503906.050781.542969.15625 1.078125.320312 1.601563.109375.476562.269531.941406.46875 1.390625.234375.429687.5.839844.800781 1.222656.316407.449219.679688.859375 1.082032 1.234375.125.109375.191406.277344.335937.382813 16.277344 11.808593 29.53125 27.308593 38.671875 45.222656 9.390625 18.761718 14.257813 39.460937 14.214844 60.441406v24h-176c-13.253906 0-24 10.746094-24 24v240c0 4.417969 3.582031 8 8 8h464c4.417969 0 8-3.582031 8-8v-240c0-13.253906-10.746094-24-24-24zm8 24v200h-98.550781l-81.714844-208h172.265625c4.417969 0 8 3.582031 8 8zm-139.054688 232-13.746093-27.574219c-.375-.726562-.855469-1.390625-1.429688-1.96875-.125-.117187-.257812-.226562-.394531-.328125-.558594-.507812-1.191406-.933594-1.871094-1.265625-.222656-.113281-.453125-.214843-.6875-.304687-.898437-.355469-1.851562-.546875-2.816406-.558594h-128c-.953125.019531-1.890625.207031-2.777344.558594-.234375.089844-.464844.191406-.6875.304687-.679687.332031-1.308594.757813-1.871094 1.265625-.136718.101563-.265624.210938-.390624.328125-.578126.578125-1.058594 1.242188-1.433594 1.96875l-13.785156 27.574219h-27.054688v-22.488281l85.457031-217.511719h53.085938l85.457031 217.511719v22.488281zm-164.945312-395.824219v-12.175781c0-13.253906 10.746094-24 24-24h112c13.253906 0 24 10.746094 24 24v12.175781c-16.792969 12.90625-30.5 29.390625-40.121094 48.257813-10.488281 20.972656-15.929687 44.113281-15.878906 67.566406v24h-48v-24c.046875-23.441406-5.382812-46.574219-15.863281-67.542969-9.625-18.875-23.335938-35.371093-40.136719-48.28125zm-144 163.824219c0-4.417969 3.582031-8 8-8h172.265625l-81.714844 208h-98.550781zm0 216h96v16h-96zm156.945312 16 8-16h118.109376l8 16zm291.054688 0h-96v-16h96zm0 0"/></svg>