<svg height="480pt" viewBox="-31 0 479 480" width="480pt" xmlns="http://www.w3.org/2000/svg"><path d="m400.5 122.679688v-10.679688c0-4.417969-3.582031-8-8-8s-8 3.582031-8 8v10.679688c-10.945312 7.65625-16 29.671874-16 37.320312v224c0 4.417969 3.582031 8 8 8h32c4.417969 0 8-3.582031 8-8v-224c0-7.648438-5.054688-29.664062-16-37.320312zm-8 14.015624c3.15625 4.644532 5.425781 9.832032 6.6875 15.304688h-13.375c1.261719-5.472656 3.53125-10.660156 6.6875-15.304688zm-8 31.304688h16v160h-16zm16 208h-16v-32h16zm0 0"/><path d="m335.972656 101.390625c-.074218-.253906-.164062-.503906-.265625-.75-.375-.835937-.890625-1.601563-1.527343-2.265625v-.039062l-96-96c-.851563-.839844-1.894532-1.457032-3.039063-1.800782-.671875-.230468-1.371094-.371094-2.082031-.414062-.222656-.0312502-.375-.121094-.558594-.121094h-224c-4.417969 0-8 3.582031-8 8v464c0 4.417969 3.582031 8 8 8h320c4.417969 0 8-3.582031 8-8v-368c0-.167969-.089844-.3125-.097656-.480469-.046875-.726562-.191406-1.441406-.429688-2.128906zm-95.472656-74.078125 68.6875 68.6875h-68.6875zm-224 436.6875v-448h208v88c0 4.417969 3.582031 8 8 8h88v352zm0 0"/><path d="m288.5 136h-240c-4.417969 0-8 3.582031-8 8s3.582031 8 8 8h240c4.417969 0 8-3.582031 8-8s-3.582031-8-8-8zm0 0"/><path d="m288.5 184h-240c-4.417969 0-8 3.582031-8 8s3.582031 8 8 8h240c4.417969 0 8-3.582031 8-8s-3.582031-8-8-8zm0 0"/><path d="m288.5 232h-240c-4.417969 0-8 3.582031-8 8s3.582031 8 8 8h240c4.417969 0 8-3.582031 8-8s-3.582031-8-8-8zm0 0"/><path d="m288.5 280h-240c-4.417969 0-8 3.582031-8 8s3.582031 8 8 8h240c4.417969 0 8-3.582031 8-8s-3.582031-8-8-8zm0 0"/><path d="m288.5 328h-240c-4.417969 0-8 3.582031-8 8s3.582031 8 8 8h240c4.417969 0 8-3.582031 8-8s-3.582031-8-8-8zm0 0"/></svg>