<svg height="480pt" viewBox="-120 0 480 480" width="480pt" xmlns="http://www.w3.org/2000/svg"><path d="m240.027344 200c0-13.253906-10.746094-24-24-24h-16v-96c0-7.648438-5.058594-29.664062-16-37.320312v-10.679688c0-4.417969-3.582032-8-8-8-4.417969 0-8 3.582031-8 8v10.679688c-10.945313 7.65625-16 29.671874-16 37.320312v96h-8v-120c0-7.648438-5.058594-29.664062-16-37.320312v-10.679688c0-4.417969-3.582032-8-8-8-4.417969 0-8 3.582031-8 8v10.679688c-10.945313 7.65625-16 29.671874-16 37.320312v120h-2.175782l-5.824218-10.089844v-77.910156c0-7.648438-5.058594-29.664062-16-37.320312v-10.679688c0-4.417969-3.582032-8-8-8-4.417969 0-8 3.582031-8 8v10.679688c-10.945313 7.65625-16 29.671874-16 37.320312v2.609375c-5.457032-5.199219-12.308594-8.691406-19.722656-10.050781l-5.351563-9.261719c-1.417969-2.496094-4.066406-4.039063-6.933594-4.046875-2.871093-.007812-5.527343 1.527344-6.957031 4.015625s-1.414062 5.554687.035156 8.03125l5.34375 9.246094c-5.65625 12.105469.976563 33.695312 4.800782 40.320312l27.304687 47.25c-9.207031.488281-17.300781 6.246094-20.785156 14.78125-3.484375 8.535157-1.730469 18.3125 4.503906 25.105469-3.992187 4.375-6.21875 10.078125-6.238281 16v208c.027344 22.082031 17.917968 39.972656 40 40h144c22.078125-.027344 39.972656-17.917969 40-40v-208c-.023438-5.921875-2.246094-11.625-6.242188-16 3.996094-4.375 6.21875-10.078125 6.242188-16zm-64-143.304688c3.15625 4.644532 5.425781 9.832032 6.6875 15.304688h-13.375c1.261718-5.472656 3.53125-10.660156 6.6875-15.304688zm-8 31.304688h16v88h-16zm-48-55.304688c3.15625 4.644532 5.425781 9.832032 6.6875 15.304688h-13.375c1.261718-5.472656 3.53125-10.660156 6.6875-15.304688zm-8 31.304688h16v112h-16zm-56 46.480469v-14.480469h16v42.191406zm8-45.785157c3.15625 4.644532 5.425781 9.832032 6.6875 15.304688h-13.375c1.261718-5.472656 3.53125-10.660156 6.6875-15.304688zm-30.191406 41.90625-11.601563 6.695313c-1.640625-5.375-2.269531-11.011719-1.855469-16.617187 5.058594 2.449218 9.621094 5.8125 13.457032 9.921874zm9.09375 13.214844 32.441406 56.183594h-18.402344l-27.847656-48.191406zm-2.902344 72.183594h176c4.417968 0 8 3.582031 8 8s-3.582032 8-8 8h-176c-4.417969 0-8-3.582031-8-8s3.582031-8 8-8zm184 248c0 13.253906-10.746094 24-24 24h-144c-13.253906 0-24-10.746094-24-24v-208c0-4.417969 3.582031-8 8-8h176c4.417968 0 8 3.582031 8 8zm0 0"/></svg>