<svg height="480pt" viewBox="-40 0 480 480" width="480pt" xmlns="http://www.w3.org/2000/svg"><path d="m392 0h-384c-4.417969 0-8 3.582031-8 8v464c0 4.417969 3.582031 8 8 8h384c4.417969 0 8-3.582031 8-8v-464c0-4.417969-3.582031-8-8-8zm-8 464h-368v-448h368zm0 0"/><path d="m64 408h80c13.253906 0 24-10.746094 24-24v-320c0-13.253906-10.746094-24-24-24h-80c-13.253906 0-24 10.746094-24 24v320c0 13.253906 10.746094 24 24 24zm-8-344c0-4.417969 3.582031-8 8-8h80c4.417969 0 8 3.582031 8 8v320c0 4.417969-3.582031 8-8 8h-80c-4.417969 0-8-3.582031-8-8zm0 0"/><path d="m200 408h160c4.417969 0 8-3.582031 8-8v-192c0-4.417969-3.582031-8-8-8h-160c-4.417969 0-8 3.582031-8 8v192c0 4.417969 3.582031 8 8 8zm8-16v-144h144v144zm0-176h144v16h-144zm0 0"/><path d="m200 184h160c4.417969 0 8-3.582031 8-8v-128c0-4.417969-3.582031-8-8-8h-160c-4.417969 0-8 3.582031-8 8v128c0 4.417969 3.582031 8 8 8zm8-128h144v112h-144zm0 0"/><path d="m336 64h-112c-4.417969 0-8 3.582031-8 8v80c0 4.417969 3.582031 8 8 8h112c4.417969 0 8-3.582031 8-8v-80c0-4.417969-3.582031-8-8-8zm-8 80h-96v-64h96zm0 0"/><path d="m240 264h-16c-4.417969 0-8 3.582031-8 8s3.582031 8 8 8h16c4.417969 0 8-3.582031 8-8s-3.582031-8-8-8zm0 0"/><path d="m240 296h-16c-4.417969 0-8 3.582031-8 8s3.582031 8 8 8h16c4.417969 0 8-3.582031 8-8s-3.582031-8-8-8zm0 0"/><path d="m288 296h-16c-4.417969 0-8 3.582031-8 8s3.582031 8 8 8h16c4.417969 0 8-3.582031 8-8s-3.582031-8-8-8zm0 0"/><path d="m336 296h-16c-4.417969 0-8 3.582031-8 8s3.582031 8 8 8h16c4.417969 0 8-3.582031 8-8s-3.582031-8-8-8zm0 0"/><path d="m336 328h-16c-4.417969 0-8 3.582031-8 8s3.582031 8 8 8h16c4.417969 0 8-3.582031 8-8s-3.582031-8-8-8zm0 0"/><path d="m336 360h-16c-4.417969 0-8 3.582031-8 8s3.582031 8 8 8h16c4.417969 0 8-3.582031 8-8s-3.582031-8-8-8zm0 0"/><path d="m288 360h-16c-4.417969 0-8 3.582031-8 8s3.582031 8 8 8h16c4.417969 0 8-3.582031 8-8s-3.582031-8-8-8zm0 0"/><path d="m288 328h-16c-4.417969 0-8 3.582031-8 8s3.582031 8 8 8h16c4.417969 0 8-3.582031 8-8s-3.582031-8-8-8zm0 0"/><path d="m240 328h-16c-4.417969 0-8 3.582031-8 8s3.582031 8 8 8h16c4.417969 0 8-3.582031 8-8s-3.582031-8-8-8zm0 0"/><path d="m240 360h-16c-4.417969 0-8 3.582031-8 8s3.582031 8 8 8h16c4.417969 0 8-3.582031 8-8s-3.582031-8-8-8zm0 0"/><path d="m288 264h-16c-4.417969 0-8 3.582031-8 8s3.582031 8 8 8h16c4.417969 0 8-3.582031 8-8s-3.582031-8-8-8zm0 0"/><path d="m336 264h-16c-4.417969 0-8 3.582031-8 8s3.582031 8 8 8h16c4.417969 0 8-3.582031 8-8s-3.582031-8-8-8zm0 0"/></svg>