<svg height="479pt" viewBox="-55 0 479 479.96065" width="479pt" xmlns="http://www.w3.org/2000/svg"><path d="m368.480469 200c.03125-14.308594-9.460938-26.890625-23.230469-30.785156-13.765625-3.894532-28.445312 1.847656-35.914062 14.050781l-53.519532-66.898437-13.089844-52.367188h29.753907c13.253906 0 24-10.746094 24-24v-16c0-13.253906-10.746094-24-24-24h-176c-13.253907 0-24 10.746094-24 24v16c0 13.253906 10.746093 24 24 24h29.75l-13.085938 52.367188-53.519531 66.898437c-7.472656-12.203125-22.148438-17.945313-35.914062-14.050781-13.769532 3.894531-23.261719 16.476562-23.230469 30.785156 0 56.433594 46.75 104.9375 113.121093 125.496094l63.519532 149.601562c1.257812 2.949219 4.152344 4.863282 7.359375 4.863282s6.101562-1.914063 7.359375-4.863282l63.519531-149.601562c66.367187-20.558594 113.121094-69.0625 113.121094-125.496094zm-280-160v-16c0-4.417969 3.582031-8 8-8h176c4.417969 0 8 3.582031 8 8v16c0 4.417969-3.582031 8-8 8h-176c-4.417969 0-8-3.582031-8-8zm137.75 24 14.488281 57.945312.050781.109376c.0625.234374.207031.441406.292969.671874.25.714844.597656 1.386719 1.035156 2 .0625.082032.070313.183594.132813.273438l62.058593 77.601562c-2.058593 42.878907-54.9375 77.398438-119.808593 77.398438-64.871094 0-117.753907-34.519531-119.808594-77.441406l62.054687-77.558594.050782-.105469c.292968-.449219.542968-.929687.742187-1.429687.265625-.453125.492188-.925782.671875-1.417969l.050782-.101563 14.484374-57.945312zm-41.75 387.527344-51.34375-120.953125c33.847656 7.234375 68.839843 7.234375 102.6875 0zm0-131.527344c-92.640625 0-168-53.832031-168-120 0-8.835938 7.164062-16 16-16 8.835937 0 16 7.164062 16 16 0 .265625.054687.519531.054687.800781v.160157c.746094 52.480468 61.410156 95.039062 135.945313 95.039062 74.535156 0 135.199219-42.558594 135.9375-95.054688v-.144531c0-.265625.054687-.519531.054687-.800781 0-8.835938 7.164063-16 16-16 8.835938 0 16 7.164062 16 16 .007813 66.167969-75.351562 120-167.992187 120zm0 0"/></svg>