<svg height="480pt" viewBox="0 -96 480 480" width="480pt" xmlns="http://www.w3.org/2000/svg"><path d="m440 48h-80v-40c0-4.417969-3.582031-8-8-8h-224c-4.417969 0-8 3.582031-8 8v40h-80c-22.082031.027344-39.9726562 17.917969-40 40v192c0 4.417969 3.582031 8 8 8h464c4.417969 0 8-3.582031 8-8v-192c-.027344-22.082031-17.917969-39.972656-40-40zm-304-32h208v80h-208zm328 256h-448v-184c0-13.253906 10.746094-24 24-24h80v40c0 4.417969 3.582031 8 8 8h224c4.417969 0 8-3.582031 8-8v-40h80c13.253906 0 24 10.746094 24 24zm0 0"/><path d="m352 176h-224c-4.417969 0-8 3.582031-8 8v64c0 4.417969 3.582031 8 8 8h224c4.417969 0 8-3.582031 8-8v-64c0-4.417969-3.582031-8-8-8zm-8 32h-136v-16h136zm-152-16v16h-56v-16zm-56 32h56v16h-56zm72 16v-16h136v16zm0 0"/><path d="m64 80c-17.671875 0-32 14.328125-32 32s14.328125 32 32 32 32-14.328125 32-32-14.328125-32-32-32zm0 48c-8.835938 0-16-7.164062-16-16s7.164062-16 16-16 16 7.164062 16 16-7.164062 16-16 16zm0 0"/><path d="m64 160c-13.253906 0-24 10.746094-24 24s10.746094 24 24 24 24-10.746094 24-24-10.746094-24-24-24zm0 32c-4.417969 0-8-3.582031-8-8s3.582031-8 8-8 8 3.582031 8 8-3.582031 8-8 8zm0 0"/><path d="m64 216c-13.253906 0-24 10.746094-24 24s10.746094 24 24 24 24-10.746094 24-24-10.746094-24-24-24zm0 32c-4.417969 0-8-3.582031-8-8s3.582031-8 8-8 8 3.582031 8 8-3.582031 8-8 8zm0 0"/></svg>