<svg height="480pt" viewBox="0 -104 480.44197 480" width="480pt" xmlns="http://www.w3.org/2000/svg"><path d="m240.449219 112.011719c-13.253907 0-24 10.746093-24 24 0 13.257812 10.746093 24 24 24 13.253906 0 24-10.742188 24-24 0-13.253907-10.746094-24-24-24zm0 32c-4.417969 0-8-3.582031-8-8s3.582031-8 8-8 8 3.582031 8 8-3.582031 8-8 8zm0 0"/><path d="m479.832031 139.070312c1.238281-2.988281.554688-6.425781-1.726562-8.714843l-48-48c-.746094-.738281-1.628907-1.328125-2.601563-1.726563-.96875-.402344-2.007812-.609375-3.054687-.617187h-136c-1.578125.003906-3.125.472656-4.441407 1.34375l-19.648437 13.097656c-10.996094-6.371094-24.078125-8.101563-36.351563-4.804687-12.277343 3.292968-22.734374 11.34375-29.0625 22.363281h-92.304687c23.136719-20.429688 28.363281-54.476563 12.417969-80.90625-15.949219-26.425781-48.507813-37.675781-77.367188-26.734375-28.859375 10.945312-45.769531 40.957031-40.183594 71.3125 5.585938 30.355468 32.074219 52.378906 62.941407 52.328125h128.71875c-.960938 5.292969-.960938 10.710937 0 16h-128.71875c-31.046875-.109375-57.726563 22.007812-63.378907 52.539062-5.648437 30.527344 11.351563 60.726563 40.382813 71.738281 29.027344 11.007813 61.777344-.328124 77.792969-26.925781 16.011718-26.597656 10.707031-60.84375-12.605469-81.351562h92.304687c6.320313 11.03125 16.777344 19.085937 29.050782 22.390625 12.277344 3.300781 25.363281 1.578125 36.363281-4.789063l19.648437 13.09375c1.320313.863281 2.867188 1.316407 4.441407 1.304688h136c1.046875-.003907 2.085937-.214844 3.054687-.613281.972656-.402344 1.855469-.988282 2.601563-1.730469l48-48c.742187-.742188 1.328125-1.628907 1.726562-2.597657zm-463.382812-75.058593c0-26.507813 21.488281-48 48-48 26.507812 0 48 21.492187 48 48 0 26.511719-21.492188 48-48 48-26.5-.023438-47.972657-21.5-48-48zm96 144c0 26.511719-21.492188 48-48 48-26.511719 0-48-21.488281-48-48 0-26.507813 21.488281-48 48-48 26.5.027343 47.972656 21.503906 48 48zm178.398437-112h130.289063l32 32h-165.40625c-1.417969-8.425781-5.066407-16.324219-10.570313-22.863281zm-82.398437 40c0-17.671875 14.328125-32 32-32s32 14.328125 32 32c0 17.675781-14.328125 32-32 32s-32-14.324219-32-32zm68.710937 30.863281c5.503906-6.539062 9.152344-14.433594 10.570313-22.863281h165.40625l-32 32h-130.289063zm0 0"/></svg>