<svg height="480pt" viewBox="0 -152 480 480" width="480pt" xmlns="http://www.w3.org/2000/svg"><path d="m456 32h-60.375c-16.613281-20.257812-41.429688-32-67.625-32s-51.011719 11.742188-67.625 32h-236.375c-13.253906 0-24 10.742188-24 24v112c0 4.417969 3.582031 8 8 8h464c4.417969 0 8-3.582031 8-8v-112c0-13.257812-10.746094-24-24-24zm-185.535156 12.796875c13.5625-18.125 34.878906-28.796875 57.519531-28.796875s43.957031 10.671875 57.519531 28.796875c9.4375 12.421875 14.53125 27.601563 14.496094 43.203125 0 39.761719-32.234375 72-72 72s-72-32.238281-72-72c-.046875-15.597656 5.035156-30.777344 14.464844-43.203125zm-126.464844 3.203125h48v112h-48zm-16 112h-48v-112h48zm-112-104c0-4.417969 3.582031-8 8-8h40v112h-48zm192 104v-112h41.601562c-6.355468 12.371094-9.644531 26.089844-9.601562 40 .003906 28.667969 13.980469 55.539062 37.457031 72zm256 0h-85.457031c23.476562-16.460938 37.453125-43.332031 37.457031-72 .042969-13.910156-3.246094-27.628906-9.601562-40h49.601562c4.417969 0 8 3.582031 8 8zm0 0"/><path d="m328 136c26.507812 0 48-21.492188 48-48 0-26.511719-21.492188-48-48-48s-48 21.488281-48 48c.027344 26.496094 21.5 47.972656 48 48zm0-80c17.671875 0 32 14.324219 32 32 0 17.671875-14.328125 32-32 32s-32-14.328125-32-32c0-17.675781 14.328125-32 32-32zm0 0"/><path d="m32 80h16c4.417969 0 8-3.582031 8-8s-3.582031-8-8-8h-16c-4.417969 0-8 3.582031-8 8s3.582031 8 8 8zm0 0"/><path d="m48 128h-16c-4.417969 0-8 3.582031-8 8s3.582031 8 8 8h16c4.417969 0 8-3.582031 8-8s-3.582031-8-8-8zm0 0"/><path d="m48 96h-16c-4.417969 0-8 3.582031-8 8s3.582031 8 8 8h16c4.417969 0 8-3.582031 8-8s-3.582031-8-8-8zm0 0"/><path d="m96 80h16c4.417969 0 8-3.582031 8-8s-3.582031-8-8-8h-16c-4.417969 0-8 3.582031-8 8s3.582031 8 8 8zm0 0"/><path d="m112 128h-16c-4.417969 0-8 3.582031-8 8s3.582031 8 8 8h16c4.417969 0 8-3.582031 8-8s-3.582031-8-8-8zm0 0"/><path d="m96 112h16c4.417969 0 8-3.582031 8-8s-3.582031-8-8-8h-16c-4.417969 0-8 3.582031-8 8s3.582031 8 8 8zm0 0"/><path d="m160 80h16c4.417969 0 8-3.582031 8-8s-3.582031-8-8-8h-16c-4.417969 0-8 3.582031-8 8s3.582031 8 8 8zm0 0"/><path d="m176 128h-16c-4.417969 0-8 3.582031-8 8s3.582031 8 8 8h16c4.417969 0 8-3.582031 8-8s-3.582031-8-8-8zm0 0"/><path d="m176 96h-16c-4.417969 0-8 3.582031-8 8s3.582031 8 8 8h16c4.417969 0 8-3.582031 8-8s-3.582031-8-8-8zm0 0"/></svg>