<svg height="481pt" viewBox="0 0 481.37467 481" width="481pt" xmlns="http://www.w3.org/2000/svg"><path d="m473.375 353.476562h-24v-40c0-4.417968-3.582031-8-8-8h-160c-4.417969 0-8 3.582032-8 8v40h-180.6875l124.6875-124.6875 26.34375 26.34375c3.125 3.125 8.1875 3.125 11.3125 0l112-112c3.121094-3.125 3.121094-8.1875 0-11.3125l-26.34375-26.34375 26.34375-26.34375c3.121094-3.125 3.121094-8.1875 0-11.3125l-56-56c-16.730469-15.511718-42.585938-15.511718-59.3125 0l-240 240c-15.625 16.683594-15.625 42.628907 0 59.3125l53.65625 53.65625v108.6875c0 4.417969 3.582031 8 8 8h400c4.417969 0 8-3.582031 8-8v-112c0-4.417968-3.582031-8-8-8zm-184-32h144v32h-144zm60.6875-184-100.6875 100.6875-20.6875-20.6875 100.6875-100.6875zm-334.0625 144c-.15625-6.800781 2.371094-13.386718 7.03125-18.34375l240-240c10.414062-9.417968 26.269531-9.417968 36.6875 0l50.34375 50.34375-276.6875 276.6875-50.34375-50.34375c-4.660156-4.953124-7.1875-11.542968-7.03125-18.34375zm449.375 184h-384v-96h384zm0 0"/></svg>