<svg height="480pt" viewBox="0 -3 480 480" width="480pt" xmlns="http://www.w3.org/2000/svg"><path d="m440 378.003906h-232v-64h148.6875l29.65625 29.65625c3.125 3.121094 8.1875 3.121094 11.3125 0 38.398438-38.402344 34.824219-104.488281-8-147.3125l-176-176c-.199219-.199218-.417969-.390625-.640625-.578125-33.015625-26.566406-71.75-26.34375-98.671875.578125-1.53125 1.527344-2.375 3.613282-2.34375 5.773438.03125 2.164062.9375 4.222656 2.511719 5.707031l130.695312 122.976563c-4.34375 6.953124-6.625 15-6.582031 23.199218 0 5.46875 1.007812 10.894532 2.976562 16h-81.601562c-61.839844.039063-111.960938 50.160156-112 112v72h-8c-22.082031.027344-39.9726562 17.917969-40 40v48c0 4.417969 3.582031 8 8 8h464c4.417969 0 8-3.582031 8-8v-48c-.027344-22.082031-17.917969-39.972656-40-40zm-48.289062-51.601562-130.046876-130.046875c-9.375-10.429688-9.375-26.25 0-36.679688l34.335938-34.359375 82.34375 82.34375c30.199219 30.199219 42.6875 82.65625 13.367188 118.742188zm-189.054688-294.429688 82.03125 82.03125-28.855469 28.855469-123.953125-116.664063c20.480469-15.609374 46.367188-13.6875 70.777344 5.777344zm-138.65625 274.03125c.035156-53.003906 42.996094-95.964844 96-96h92.6875l88 88h-140.6875c-4.417969 0-8 3.582032-8 8v72h-128zm400 152h-448v-40c0-13.253906 10.746094-24 24-24h400c13.253906 0 24 10.746094 24 24zm0 0"/></svg>