<svg height="480pt" viewBox="0 0 480 480" width="480pt" xmlns="http://www.w3.org/2000/svg"><path d="m472 128h-112.359375c-3.640625-71.265625-55.855469-128-119.640625-128s-115.960938 56.734375-119.640625 128h-112.359375c-4.417969 0-8 3.582031-8 8v336c0 4.417969 3.582031 8 8 8h464c4.417969 0 8-3.582031 8-8v-336c0-4.417969-3.582031-8-8-8zm-232-112c55.007812 0 100.054688 49.601562 103.648438 112h-8c-3.535157-58.023438-45.03125-104-95.648438-104s-92.113281 45.976562-95.65625 104h-8c3.601562-62.398438 48.648438-112 103.65625-112zm79.664062 112h-159.328124c3.40625-49.191406 37.800781-88 79.664062-88s76.257812 38.808594 79.664062 88zm144.335938 16v136h-104v-80c0-4.417969-3.582031-8-8-8h-32c-4.417969 0-8 3.582031-8 8v80h-144v-80c0-4.417969-3.582031-8-8-8h-32c-4.417969 0-8 3.582031-8 8v80h-104v-136zm-136 152h16v72h-16zm0-16v-72h16v72zm-192 16h16v72h-16zm0-16v-72h16v72zm-120 184v-168h104v80c0 4.417969 3.582031 8 8 8h32c4.417969 0 8-3.582031 8-8v-80h144v80c0 4.417969 3.582031 8 8 8h32c4.417969 0 8-3.582031 8-8v-80h104v168zm0 0"/></svg>